<?xml version="1.0" encoding="UTF-8" standalone="no"?>
<!-- Created with Inkscape (http://www.inkscape.org/) -->

<svg
   width="210mm"
   height="297mm"
   viewBox="0 0 210 297"
   version="1.1"
   id="svg1"
   inkscape:version="1.4 (86a8ad7, 2024-10-11)"
   sodipodi:docname="FACEBOOK.svg"
   xmlns:inkscape="http://www.inkscape.org/namespaces/inkscape"
   xmlns:sodipodi="http://sodipodi.sourceforge.net/DTD/sodipodi-0.dtd"
   xmlns="http://www.w3.org/2000/svg"
   xmlns:svg="http://www.w3.org/2000/svg">
  <sodipodi:namedview
     id="namedview1"
     pagecolor="#ffffff"
     bordercolor="#000000"
     borderopacity="0.25"
     inkscape:showpageshadow="2"
     inkscape:pageopacity="0.0"
     inkscape:pagecheckerboard="0"
     inkscape:deskcolor="#d1d1d1"
     inkscape:document-units="mm"
     inkscape:zoom="0.49264169"
     inkscape:cx="396.84014"
     inkscape:cy="561.25984"
     inkscape:window-width="1366"
     inkscape:window-height="705"
     inkscape:window-x="-8"
     inkscape:window-y="-8"
     inkscape:window-maximized="1"
     inkscape:current-layer="layer1" />
  <defs
     id="defs1" />
  <g
     inkscape:label="Capa 1"
     inkscape:groupmode="layer"
     id="layer1">
    <path
       style="fill:#3c5897;fill-opacity:1;stroke:#000000;stroke-width:0.314377;stroke-linecap:round;stroke-dasharray:none;stroke-opacity:1"
       d="m 109.62669,166.65791 -21.480795,0.2292 c -0.65945,-0.10033 -1.274019,0.38617 -1.194122,-2.174 v -40.73269 c 0.195019,-1.19039 0.894635,-1.64024 2.061357,-1.40457 l 38.75349,-0.2161 c 0.90065,0.0867 1.88589,0.004 1.75215,2.16089 l 0.10308,39.86833 c 0.16653,1.55259 -0.66452,2.14659 -1.64909,2.59306 H 116.6353 l 0.20614,-17.61121 6.03692,-0.0963 0.006,-6.71567 -6.14633,0.005 -0.10305,-6.05048 c 0.0891,-0.79856 0.47572,-0.87443 1.33988,-0.86435 l 5.66873,-0.10804 -0.20614,-6.69875 -8.86383,0.10804 c -2.06992,-0.097 -5.04822,1.41622 -4.94725,5.72635 l -0.10306,7.88723 h -5.56566 v 7.23897 l 5.87486,-0.10804 z"
       id="path1"
       sodipodi:nodetypes="ccccccccccccccccccccccccc" />
  </g>
</svg>
