<?xml version="1.0" encoding="UTF-8" standalone="no"?>
<!-- Created with Inkscape (http://www.inkscape.org/) -->

<svg
   width="210mm"
   height="297mm"
   viewBox="0 0 210 297"
   version="1.1"
   id="svg1"
   inkscape:version="1.4 (86a8ad7, 2024-10-11)"
   sodipodi:docname="INSTAGRAM.svg"
   xmlns:inkscape="http://www.inkscape.org/namespaces/inkscape"
   xmlns:sodipodi="http://sodipodi.sourceforge.net/DTD/sodipodi-0.dtd"
   xmlns:xlink="http://www.w3.org/1999/xlink"
   xmlns="http://www.w3.org/2000/svg"
   xmlns:svg="http://www.w3.org/2000/svg">
  <sodipodi:namedview
     id="namedview1"
     pagecolor="#ffffff"
     bordercolor="#000000"
     borderopacity="0.25"
     inkscape:showpageshadow="2"
     inkscape:pageopacity="0.0"
     inkscape:pagecheckerboard="0"
     inkscape:deskcolor="#d1d1d1"
     inkscape:document-units="mm"
     inkscape:zoom="0.49264169"
     inkscape:cx="201.97235"
     inkscape:cy="672.90286"
     inkscape:window-width="1366"
     inkscape:window-height="705"
     inkscape:window-x="-8"
     inkscape:window-y="-8"
     inkscape:window-maximized="1"
     inkscape:current-layer="layer1" />
  <defs
     id="defs1">
    <radialGradient
       inkscape:collect="always"
       xlink:href="#linearGradient13"
       id="radialGradient14"
       cx="95.661613"
       cy="30.519566"
       fx="95.661613"
       fy="30.519566"
       r="14.185114"
       gradientTransform="matrix(1.9031911,-1.5613915,1.1234013,1.3693217,-120.68643,137.88785)"
       gradientUnits="userSpaceOnUse" />
    <linearGradient
       id="linearGradient13"
       inkscape:collect="always">
      <stop
         style="stop-color:#fdcd54;stop-opacity:1;"
         offset="0"
         id="stop13" />
      <stop
         style="stop-color:#fdb44e;stop-opacity:1;"
         offset="0.20503132"
         id="stop18" />
      <stop
         style="stop-color:#fe6d40;stop-opacity:1;"
         offset="0.41367918"
         id="stop15" />
      <stop
         style="stop-color:#5754c6;stop-opacity:1;"
         offset="0.78881413"
         id="stop17" />
      <stop
         style="stop-color:#c138a3;stop-opacity:1;"
         offset="0.99989992"
         id="stop16" />
      <stop
         style="stop-color:#5852c6;stop-opacity:1;"
         offset="1"
         id="stop14" />
    </linearGradient>
  </defs>
  <g
     inkscape:label="Capa 1"
     inkscape:groupmode="layer"
     id="layer1">
    <g
       id="g2"
       transform="matrix(10.661808,0,0,9.6652505,-353.23851,-335.42525)">
      <g
         id="g74"
         transform="matrix(0.68674306,0,0,0.70695673,-28.861027,29.461027)">
        <path
           style="opacity:1;fill:url(#radialGradient14);fill-opacity:1;stroke:#000000;stroke-width:0;stroke-linecap:round;stroke-dasharray:none;stroke-opacity:1"
           d="M 103.52034,7.6532548 C 95.814806,7.5764727 91.367333,7.0873176 90.575942,12.323153 l 0.05471,18.155598 c -0.173392,2.229388 2.418345,4.343158 5.907775,4.296566 h 16.514913 c 2.44301,-0.325739 4.93833,-0.515492 5.63924,-5.370706 l -0.13427,-17.186257 c -1.53757,-6.0049541 -6.85,-4.258757 -15.03797,-4.5650992 z"
           id="path2"
           sodipodi:nodetypes="cccccccc" />
        <path
           style="opacity:1;fill:none;fill-opacity:1;stroke:#ffffff;stroke-width:1.8202;stroke-linecap:round;stroke-dasharray:none;stroke-opacity:1"
           d="m 99.724541,12.015143 c -2.488216,0.180771 -3.909268,1.25485 -3.965805,3.712668 l -0.337515,9.872319 c 0.141445,2.122004 1.448613,4.163621 2.953257,4.176748 l 11.559892,0.295328 c 2.21034,-0.316958 4.1598,-2.11649 4.008,-3.923615 l -0.12658,-10.125455 c -0.36641,-2.082251 -1.5932,-3.876939 -3.92362,-3.923614 z"
           id="path19"
           sodipodi:nodetypes="ccccccccc" />
        <path
           style="fill:none;fill-opacity:1;fill-rule:evenodd;stroke:#ffffff;stroke-width:1.44113;stroke-dasharray:none;stroke-opacity:1"
           id="path26"
           sodipodi:type="arc"
           sodipodi:cx="104.93416"
           sodipodi:cy="21.171965"
           sodipodi:rx="4.3884726"
           sodipodi:ry="4.3647432"
           sodipodi:start="6.1252266"
           sodipodi:end="6.1128759"
           sodipodi:open="true"
           sodipodi:arc-type="arc"
           d="m 109.268,20.485379 a 4.3884726,4.3647432 0 0 1 -3.63015,4.994849 4.3884726,4.3647432 0 0 1 -5.03318,-3.595073 4.3884726,4.3647432 0 0 1 3.59906,-5.01705 4.3884726,4.3647432 0 0 1 5.05541,3.564091" />
        <path
           style="fill:#ffffff;fill-opacity:1;fill-rule:evenodd;stroke-width:0.264583"
           id="path27"
           sodipodi:type="arc"
           sodipodi:cx="110.44077"
           sodipodi:cy="15.736563"
           sodipodi:rx="1.1155632"
           sodipodi:ry="1.1155632"
           sodipodi:start="0"
           sodipodi:end="6.0864746"
           sodipodi:open="true"
           sodipodi:arc-type="arc"
           d="m 111.55634,15.736563 a 1.1155632,1.1155632 0 0 1 -1.06073,1.114214 1.1155632,1.1155632 0 0 1 -1.16501,-1.004669 1.1155632,1.1155632 0 0 1 0.94619,-1.21299 1.1155632,1.1155632 0 0 1 1.25803,0.885414" />
      </g>
    </g>
  </g>
</svg>
