<?xml version="1.0" encoding="UTF-8" standalone="no"?>
<!-- Created with Inkscape (http://www.inkscape.org/) -->

<svg
   width="210mm"
   height="297mm"
   viewBox="0 0 210 297"
   version="1.1"
   id="svg1"
   xml:space="preserve"
   inkscape:version="1.4 (86a8ad7, 2024-10-11)"
   sodipodi:docname="LOGO.svg"
   xmlns:inkscape="http://www.inkscape.org/namespaces/inkscape"
   xmlns:sodipodi="http://sodipodi.sourceforge.net/DTD/sodipodi-0.dtd"
   xmlns="http://www.w3.org/2000/svg"
   xmlns:svg="http://www.w3.org/2000/svg"><sodipodi:namedview
     id="namedview1"
     pagecolor="#ffffff"
     bordercolor="#000000"
     borderopacity="0.25"
     inkscape:showpageshadow="2"
     inkscape:pageopacity="0.0"
     inkscape:pagecheckerboard="0"
     inkscape:deskcolor="#d1d1d1"
     inkscape:document-units="mm"
     inkscape:zoom="0.46739984"
     inkscape:cx="123.02101"
     inkscape:cy="732.77732"
     inkscape:window-width="1366"
     inkscape:window-height="705"
     inkscape:window-x="-8"
     inkscape:window-y="-8"
     inkscape:window-maximized="1"
     inkscape:current-layer="layer1"
     showgrid="false" /><defs
     id="defs1"><linearGradient
       id="swatch16"><stop
         style="stop-color:#000000;stop-opacity:1;"
         offset="0"
         id="stop16" /></linearGradient><linearGradient
       id="swatch7"
       inkscape:swatch="solid"><stop
         style="stop-color:#000000;stop-opacity:0.670588;"
         offset="0"
         id="stop7" /></linearGradient><linearGradient
       id="swatch6"
       inkscape:swatch="solid"><stop
         style="stop-color:#000000;stop-opacity:1;"
         offset="0"
         id="stop6" /></linearGradient><linearGradient
       id="swatch5"
       inkscape:swatch="solid"><stop
         style="stop-color:#000000;stop-opacity:1;"
         offset="0"
         id="stop5" /></linearGradient><filter
       inkscape:collect="always"
       style="color-interpolation-filters:sRGB"
       id="filter17"
       x="-7.5518818e-05"
       y="-3.5157627e-05"
       width="1.000151"
       height="1.0000703"><feGaussianBlur
         inkscape:collect="always"
         stdDeviation="0.00030428405"
         id="feGaussianBlur17" /></filter></defs><g
     inkscape:label="Capa 1"
     inkscape:groupmode="layer"
     id="layer1"><g
       id="g1"><path
         style="fill:none;stroke-width:0.0649999;stroke-linecap:round"
         d="M 101.57346,81.030515 96.806961,100.43219"
         id="path1" /><path
         style="mix-blend-mode:normal;fill:#efa8ab;fill-opacity:1;stroke-width:0.0649999;stroke-dasharray:none;filter:url(#filter17)"
         d="m 74.048598,100.49932 c -4.545164,6.51345 -6.593957,15.2969 -2.014014,19.80448 1.465442,1.06835 3.037134,1.57003 5.035034,-0.2014 5.551452,-8.17617 -1.759236,-17.76883 -3.02102,-19.60308 z"
         id="path17"
         sodipodi:nodetypes="cccc" /><path
         style="fill:#f7beab;fill-opacity:1;stroke-width:0.0649999;stroke-dasharray:none"
         d="m 77.875224,104.72875 c 1.253165,-1.92226 2.506329,-3.12702 3.759494,-4.1623 0.915362,1.33543 1.183843,3.18837 1.20841,5.23644 l -3.289556,2.95389 z"
         id="path18"
         sodipodi:nodetypes="ccccc" /><path
         style="fill:#f5c0ad;fill-opacity:1;stroke-width:0.0649999;stroke-dasharray:none"
         d="m 65.791137,106.13856 2.953888,2.08115 1.544079,-4.69937 c -1.43454,-1.23627 -2.971548,-2.71164 -3.893761,-2.75248 -0.826193,1.6861 -0.845492,3.50669 -0.604206,5.3707 z"
         id="path19"
         sodipodi:nodetypes="ccccc" /><path
         style="fill:#eda7a9;fill-opacity:1;stroke-width:0.0649999;stroke-dasharray:none"
         d="m 59.413425,106.94417 c 0.805114,8.43065 4.521142,12.91748 10.875679,13.82956 -2.412978,-3.23678 -2.008915,-6.96376 -2.215416,-10.54 -2.507481,-2.1386 -4.944532,-4.60311 -8.660263,-3.28956 z"
         id="path20"
         sodipodi:nodetypes="cccc" /><path
         style="fill:#eda7ab;fill-opacity:1;stroke-width:0.0649999;stroke-dasharray:none"
         d="m 80.157774,110.03232 c -0.159406,3.2448 0.459529,6.48961 -1.342676,9.73441 4.917399,0.7711 11.417206,-9.3947 9.667269,-14.03097 -3.580471,0 -6.355334,1.43219 -8.324593,4.29656 z"
         id="path21"
         sodipodi:nodetypes="cccc" /><path
         style="fill:#eda8a6;fill-opacity:1;stroke-width:0.0649999;stroke-dasharray:none"
         d="m 55.452532,116.07437 4.967902,-0.20141 c 2.544189,3.28584 5.786506,5.81537 10.472875,6.78052 -5.137228,1.59121 -12.552937,2.37812 -15.440777,-6.57911 z"
         id="path22"
         sodipodi:nodetypes="cccc" /><path
         style="fill:#eba7aa;fill-opacity:1;stroke-width:0.0649999;stroke-dasharray:none"
         d="m 76.264012,122.58635 c 5.290611,-0.61403 8.56772,-3.91272 11.614153,-7.51899 l 5.102169,0.67134 c -5.234338,9.71347 -10.991006,7.93568 -16.716322,6.84765 z"
         id="path23"
         sodipodi:nodetypes="cccc" /><path
         style="fill:#a9d3d2;fill-opacity:1;stroke:none;stroke-width:0.264999"
         d="m 101.44505,80.842733 c -3.251228,6.233955 -9.236593,11.568539 -5.554082,18.561073 3.295298,4.756594 9.241262,4.089904 11.203102,0 2.96988,-8.860026 -2.31346,-13.139429 -5.64902,-18.561073 z"
         id="path2"
         sodipodi:nodetypes="cccc" /><path
         style="fill:#a8d3d1;fill-opacity:0.878431;stroke:none;stroke-width:0.264999;stroke-opacity:1"
         d="m 95.946583,103.64499 c 3.945432,2.43241 6.664527,2.46479 10.387957,0.60083 -1.79556,2.79347 -4.41361,4.03703 -7.8001,2.92932 -1.255292,-0.47307 -2.2356,-1.96819 -2.587857,-3.53015 z"
         id="path3"
         sodipodi:nodetypes="cccc" /><path
         style="fill:#a9d3d2;fill-opacity:1;stroke:none;stroke-width:0.264999"
         d="m 74.054411,123.13919 c -4.83806,5.22818 -11.238195,3.84773 -16.424889,1.80389 -6.090285,-1.59554 -6.667175,1.96043 -0.56965,4.5572 12.149195,3.75247 23.625733,3.2039 32.232657,-2.65836 -5.369301,-0.0716 -11.815843,0.74967 -15.238118,-3.70273 z"
         id="path4"
         sodipodi:nodetypes="ccccc" /><path
         style="fill:#a6d2d4;fill-opacity:1;stroke:none;stroke-width:0.264999"
         d="m 73.48476,135.10183 -2.278597,4.46225 c -3.278243,-0.41242 -7.045771,-0.23102 -9.846607,-1.83696 -2.30294,-1.24945 -2.654601,-2.2188 0.669856,-3.55265 3.642493,-1.55264 8.306641,-0.83099 11.455348,0.92736 z"
         id="path5"
         sodipodi:nodetypes="ccccc" /><path
         style="fill:#fbd9c6;fill-opacity:1;stroke:none;stroke-width:0.264999"
         d="m 117.61845,143.5321 c -4.94887,0.21609 -9.90118,0.4012 -14.50091,3.75949 -3.161633,4.86771 -7.000396,7.16233 -11.949819,5.23644 l -14.635172,-4.83364 c -3.384871,-2.65586 -4.213942,-5.84979 -0.805606,-9.9358 3.488978,-4.0412 8.718509,-7.52541 21.080018,-8.7274 6.869309,-1.32133 12.723519,-4.10892 16.380649,-10.07007 l 7.38472,-16.91772 c 1.5037,-2.741417 3.32625,-5.084282 7.65326,-4.296565 l 12.75542,1.74548 c 3.35914,0.926025 6.22078,2.306175 4.29657,8.861665 l -4.83364,13.29249 c -4.54706,10.5577 -10.14135,19.82185 -22.82549,21.88563 z"
         id="path8"
         sodipodi:nodetypes="ccccccccccccc" /><path
         style="fill:#a57b73;fill-opacity:1;stroke:none;stroke-width:0.264999"
         d="m 76.129746,152.4609 -2.014013,5.97491 -3.625226,-1.00701 2.953886,-8.45886 c 7.38472,2.23779 13.803686,6.4566 22.15416,7.92179 2.089393,0.0177 4.048507,-0.0557 6.713377,-3.69236 2.15621,-5.13221 6.51885,-6.16675 11.14422,-6.71338 19.9492,-1.61261 23.68436,-11.18365 28.33047,-21.21429 -11.84123,0.49987 -20.41523,4.45435 -21.34856,15.70931 -1.44142,1.53463 -2.80695,3.41944 -2.81961,-0.4028 -0.21923,-1.96394 0.30984,-4.52654 1.87974,-7.92179 1.93701,-4.71912 5.82459,-6.29661 8.99593,-7.78752 4.28358,-1.22441 8.36955,-2.21532 14.36664,-2.41682 3.42136,-6.00385 5.83959,-12.6009 5.63924,-20.40868 0.89832,0.69845 2.26538,1.02628 2.14828,5.10217 -1.09406,5.25799 -2.53432,10.63139 -4.69937,16.24638 -3.3933,6.93507 -5.99295,13.48137 -12.08408,20.00588 5.39804,2.33107 10.47753,5.13995 12.35262,12.75543 l -3.22242,0.67133 c -2.70034,-6.08669 -6.48746,-10.54322 -12.75543,-11.27848 l -6.71338,2.95389 1.34268,5.23644 -3.49096,0.13427 -1.34268,-4.43084 -8.86166,1.47695 c -6.03263,2.50868 -7.99426,9.90255 -10.60715,16.51492 l -3.759489,-1.47695 2.282549,-6.84765 c -8.898622,-1.08933 -15.687282,-4.256 -22.959764,-6.64624 z"
         id="path6"
         sodipodi:nodetypes="ccccccccccccccccccccccccccccc" /><path
         style="fill:#a57b73;fill-opacity:1;stroke:none;stroke-width:0.264999"
         d="m 98.781651,128.44805 c -1.510444,0.3633 -3.221758,1.52634 -2.780296,-1.16234 0.962999,-7.65677 10.505865,-11.8255 18.394665,-11.00994 0.13355,0.0138 -1.74548,2.81962 -1.74548,2.81962 -7.8738,0.66948 -13.819396,3.34843 -13.868889,9.35266 z"
         id="path7"
         sodipodi:nodetypes="ccscc" /><path
         style="fill:#d6c7b3;fill-opacity:1;stroke:none;stroke-width:0.264999;stroke-opacity:1"
         d="m 52.364375,131.98508 2.95389,1.20841 c 1.688881,5.60262 2.908395,10.2956 10.942812,19.67021 l -0.335672,2.08115 c -7.335052,-5.40621 -12.784306,-14.81822 -13.56103,-22.95977 z"
         id="path9"
         sodipodi:nodetypes="ccccc" /><path
         style="fill:#d9c7b2;fill-opacity:1;stroke:none;stroke-width:0.264999;stroke-opacity:1"
         d="m 50.413964,121.05048 h 2.943188 c -0.946731,-10.94452 2.002579,-19.77868 7.120618,-27.438109 4.730212,-7.614179 9.338674,-13.237909 17.75407,-17.65913 12.544743,-7.775726 25.62484,-6.985783 38.92603,-2.658362 8.40382,2.998512 16.18491,9.318269 23.0708,20.412432 l 2.65837,0.379767 C 138.12072,85.859306 130.91972,76.816525 121.05048,71.870754 111.67603,66.92896 93.942072,63.290732 78.801488,71.58593 72.093579,75.117513 65.66777,80.435728 59.718236,88.77035 c -5.810584,9.422445 -10.14309,19.24062 -9.304272,32.28013 z"
         id="path10"
         sodipodi:nodetypes="ccccccccccc" /><path
         style="fill:none;fill-opacity:1;stroke:#ffffff;stroke-width:0.465;stroke-dasharray:none;stroke-opacity:1"
         d="m 96.806961,95.598553 c -0.494132,-3.021627 0.91305,-5.409483 1.94688,-7.921789"
         id="path11"
         sodipodi:nodetypes="cc" /><path
         style="fill:none;fill-opacity:1;stroke:#ffffff;stroke-width:0.465;stroke-dasharray:none;stroke-opacity:1"
         d="m 104.89659,99.895116 c 1.32794,-0.705115 2.02623,-1.938273 1.74547,-4.430831"
         id="path12"
         sodipodi:nodetypes="cc" /><path
         style="fill:#c39590;fill-opacity:1;stroke:none;stroke-width:0.465;stroke-dasharray:none;stroke-opacity:1"
         d="m 82.306058,186.90054 c -0.492305,2.55107 0.268526,3.31195 2.28255,2.28255 16.772442,-11.90468 2.430901,-22.67925 -15.440779,-10.87568 -3.498579,2.66688 -15.978161,12.54815 -7.518987,18.6632 1.586216,1.63161 7.05016,2.87546 12.084087,4.1623 6.741657,1.82392 6.804355,5.20626 2.819621,9.533 -5.277182,4.57312 -11.286195,7.81685 -19.737341,6.04205 -3.823328,-1.58993 -2.568356,-4.87263 0,-8.59313 l 2.953888,-3.62523 c -3.049964,2.60201 -7.552328,3.26748 -7.653256,9.80154 0.430326,3.3831 1.752483,6.17164 6.444845,6.71338 7.085778,0.65801 13.677759,-0.53571 19.334541,-5.23644 6.914623,-5.92538 6.358314,-10.9452 1.476944,-15.44077 l -13.426766,-4.29657 c -5.888125,-2.33425 -2.211652,-5.43366 0.537073,-8.45886 2.566429,-2.95389 7.170203,-5.90777 12.218355,-8.86166 9.151264,-2.7895 15.742791,-2.44615 3.625225,8.19032 z"
         id="path13"
         sodipodi:nodetypes="ccccccccccccccccc" /><path
         style="fill:#c39590;fill-opacity:1;stroke:none;stroke-width:0.465;stroke-dasharray:none;stroke-opacity:1"
         d="m 95.061483,190.25723 -17.454792,41.4887 c -0.12202,3.76247 4.080768,3.52598 4.162295,3.08816 2.91716,-7.16248 5.704588,-14.54118 8.995931,-21.08002 4.076681,-6.10942 8.098718,-12.29397 13.158233,-17.05199 5.38901,-3.95462 3.75324,-0.29907 3.35669,2.01401 -3.74485,9.3576 -7.390684,12.08073 -11.009949,13.02396 -2.175265,0.7161 -1.427576,1.43219 1.074142,2.14829 3.202957,0.3658 6.165037,-0.83417 8.861667,-3.7595 2.68535,-0.38891 5.3707,-2.15208 8.05605,-3.75949 -0.0332,3.26865 -0.0401,6.51444 3.7595,6.44484 2.95068,-0.14855 6.21082,-3.23698 9.66727,-8.19032 0.8212,3.1971 0.2751,7.63097 6.17631,7.11618 6.89423,-3.68962 8.84018,-8.78611 10.71172,-13.11079 -3.31118,3.50684 -5.9254,7.32731 -10.44319,10.29117 -1.25842,0.21454 -2.76754,1.05582 -2.81962,-1.74548 l 3.59355,-10.20434 c 0.18272,-0.64979 -1.86348,-1.97266 -2.52606,-1.35185 -3.59945,3.95355 -6.26166,8.45382 -10.57547,11.99067 -1.59545,1.34349 -5.28124,5.31364 -2.44183,-1.64288 2.01381,-3.55807 4.63877,-6.57783 7.92178,-9.26447 1.47695,-1.58583 2.95389,-2.15215 4.43084,-1.20841 1.70857,-4.53048 -1.75808,-5.42662 -5.37071,-4.02803 -5.6083,3.35406 -8.05247,7.31081 -11.14421,11.14421 l -5.63924,3.22243 c 4.14909,-9.03825 2.56674,-12.60559 -1.61121,-13.6953 -5.32071,0.64085 -10.066801,7.74605 -14.903713,13.82957 l 5.77351,-14.09811 c -1.118467,-0.94116 -2.267613,-1.79029 -3.759494,-1.61121 z"
         id="path14"
         sodipodi:nodetypes="ccccccccccccccccccccccccccccc" /></g></g></svg>
