<?xml version="1.0" encoding="UTF-8" standalone="no"?>
<!-- Created with Inkscape (http://www.inkscape.org/) -->

<svg
   width="210mm"
   height="297mm"
   viewBox="0 0 210 297"
   version="1.1"
   id="svg1"
   xml:space="preserve"
   inkscape:version="1.4 (86a8ad7, 2024-10-11)"
   sodipodi:docname="TIKTOK.svg"
   xmlns:inkscape="http://www.inkscape.org/namespaces/inkscape"
   xmlns:sodipodi="http://sodipodi.sourceforge.net/DTD/sodipodi-0.dtd"
   xmlns="http://www.w3.org/2000/svg"
   xmlns:svg="http://www.w3.org/2000/svg"><sodipodi:namedview
     id="namedview1"
     pagecolor="#ffffff"
     bordercolor="#000000"
     borderopacity="0.25"
     inkscape:showpageshadow="2"
     inkscape:pageopacity="0.0"
     inkscape:pagecheckerboard="0"
     inkscape:deskcolor="#d1d1d1"
     inkscape:document-units="mm"
     inkscape:zoom="0.49264169"
     inkscape:cx="382.63103"
     inkscape:cy="737.85878"
     inkscape:window-width="1366"
     inkscape:window-height="705"
     inkscape:window-x="-8"
     inkscape:window-y="-8"
     inkscape:window-maximized="1"
     inkscape:current-layer="layer1" /><defs
     id="defs1" /><g
     inkscape:label="Capa 1"
     inkscape:groupmode="layer"
     id="layer1" /><g
     id="g1"><rect
       style="opacity:1;fill:#000000;stroke-width:0;stroke-linecap:round;stroke-linejoin:bevel;fill-opacity:1"
       id="rect1"
       width="93.422485"
       height="93.802246"
       x="58.863762"
       y="95.701088" /><path
       style="opacity:0.825;fill:#fe2c55;fill-opacity:1;stroke-width:0;stroke-linecap:round;stroke-linejoin:bevel"
       d="m 107.75866,110.51197 12.3424,-0.47471 c 0.38906,14.79346 13.52905,16.31237 16.42489,17.08948 l 0.0949,12.43734 c -5.84363,-0.81559 -11.54432,-1.94566 -16.14006,-5.50661 l 0.18988,26.29881 c -0.4223,8.74893 -8.19603,17.45395 -18.70348,19.27313 -10.276828,1.44975 -15.411994,-2.47587 -20.222554,-6.74085 -6.151748,-6.89126 -5.562568,-12.02401 -6.171202,-17.46924 1.375888,-8.83774 5.878758,-15.5572 15.095706,-19.08325 3.576133,-0.614 7.152267,-1.36614 10.7284,-0.75953 l -0.28483,12.62722 c -8.505004,-2.17142 -13.922493,4.8707 -12.627224,11.01322 0.873632,3.94866 3.062174,6.99333 7.97509,8.16498 4.838464,0.46269 8.134034,-1.54325 10.443574,-5.12685 1.65785,-2.66736 0.91761,-9.7883 0.94941,-15.47547 z"
       id="path1"
       sodipodi:nodetypes="ccccccccccccccccc" /><path
       style="opacity:1;fill:#25f4ee;fill-opacity:1;stroke-width:0;stroke-linecap:round;stroke-linejoin:bevel"
       d="m 104.79956,107.07219 12.36955,-0.47653 c 0.38991,14.85029 13.5588,16.37504 16.46101,17.15513 l 0.0951,12.48512 c -5.85648,-0.81872 -11.56971,-1.95313 -16.17556,-5.52776 l 0.1903,26.39984 c -1.29789,9.45646 -8.21406,17.52101 -18.744614,19.34718 -10.299431,1.45532 -15.445891,-2.48539 -20.267032,-6.76675 -6.165278,-6.91774 -6.313274,-12.13733 -6.184775,-17.53635 1.177513,-8.73743 5.354617,-15.0799 15.128908,-19.15657 3.919667,-1.15343 7.167998,-1.37138 10.751996,-0.76244 l -0.285457,12.67573 c -8.523709,-2.17977 -13.953114,4.88941 -12.654996,11.05553 0.875554,3.96383 3.068909,7.02019 7.992631,8.19634 4.849105,0.46447 8.151919,-1.54917 10.466539,-5.14654 1.6615,-2.67761 0.91963,-9.82591 0.9515,-15.53492 z"
       id="path1-7"
       sodipodi:nodetypes="ccccccccccccccccc" /><path
       style="opacity:1;fill:#ffffff;fill-opacity:1;stroke:#ffffff;stroke-width:0.4;stroke-linecap:round;stroke-linejoin:bevel;stroke-dasharray:none;stroke-opacity:1"
       d="m 107.9035,110.50886 9.26067,-0.30778 c 3.20782,12.60647 13.63355,15.67237 16.52302,16.45096 l 0.12827,9.30595 c -5.83078,-0.81716 -11.92174,-1.748 -16.50737,-5.31579 l 0.12233,26.95353 c -0.41945,7.62576 -8.11087,16.71544 -18.192397,18.94092 -10.254224,1.11687 -15.529156,-2.3044 -19.892766,-6.544 -5.796382,-7.41625 -5.840058,-25.46828 8.955233,-32.50237 3.165457,-1.42078 6.263789,-2.77858 9.832058,-2.1708 l 0.157932,9.7681 c -8.486298,-2.1756 -14.224173,5.06994 -12.93175,11.22427 0.564107,4.63159 12.234177,18.17581 21.27747,5.61541 1.65421,-2.67248 1.26313,-12.37042 1.29486,-18.06851 z"
       id="path1-7-2"
       sodipodi:nodetypes="ccccccccccccccc" /></g></svg>
